<mxfile host="app.diagrams.net" agent="Mozilla/5.0 (Windows NT 10.0; Win64; x64) AppleWebKit/537.36 (KHTML, like Gecko) Chrome/131.0.0.0 Safari/537.36" version="25.0.3">
  <diagram name="Page-1" id="OANCLvEyCw6ZL4S_Ftiq">
    <mxGraphModel dx="2550" dy="1837" grid="1" gridSize="10" guides="1" tooltips="1" connect="1" arrows="1" fold="1" page="1" pageScale="1" pageWidth="827" pageHeight="1169" math="0" shadow="0">
      <root>
        <mxCell id="0" />
        <mxCell id="1" parent="0" />
        <mxCell id="FKf2mYU8j4RiyfHHC0_l-1" value="FARMER" style="swimlane;fontStyle=0;childLayout=stackLayout;horizontal=1;startSize=30;horizontalStack=0;resizeParent=1;resizeParentMax=0;resizeLast=0;collapsible=1;marginBottom=0;whiteSpace=wrap;html=1;labelBackgroundColor=none;rounded=0;fillColor=#F5AB50;strokeColor=#909090;fontColor=#1A1A1A;" vertex="1" parent="1">
          <mxGeometry x="440" y="-240" width="140" height="110" as="geometry" />
        </mxCell>
        <mxCell id="FKf2mYU8j4RiyfHHC0_l-2" value="&lt;u&gt;farmer_id&lt;/u&gt;" style="text;strokeColor=none;fillColor=none;align=left;verticalAlign=middle;spacingLeft=4;spacingRight=4;overflow=hidden;points=[[0,0.5],[1,0.5]];portConstraint=eastwest;rotatable=0;whiteSpace=wrap;html=1;labelBackgroundColor=none;rounded=0;fontColor=#1A1A1A;" vertex="1" parent="FKf2mYU8j4RiyfHHC0_l-1">
          <mxGeometry y="30" width="140" height="20" as="geometry" />
        </mxCell>
        <mxCell id="FKf2mYU8j4RiyfHHC0_l-3" value="address(district,village)" style="text;strokeColor=none;fillColor=none;align=left;verticalAlign=middle;spacingLeft=4;spacingRight=4;overflow=hidden;points=[[0,0.5],[1,0.5]];portConstraint=eastwest;rotatable=0;whiteSpace=wrap;html=1;labelBackgroundColor=none;rounded=0;fontColor=#1A1A1A;" vertex="1" parent="FKf2mYU8j4RiyfHHC0_l-1">
          <mxGeometry y="50" width="140" height="30" as="geometry" />
        </mxCell>
        <mxCell id="FKf2mYU8j4RiyfHHC0_l-71" value="name" style="text;strokeColor=none;fillColor=none;align=left;verticalAlign=middle;spacingLeft=4;spacingRight=4;overflow=hidden;points=[[0,0.5],[1,0.5]];portConstraint=eastwest;rotatable=0;whiteSpace=wrap;html=1;labelBackgroundColor=none;rounded=0;fontColor=#1A1A1A;" vertex="1" parent="FKf2mYU8j4RiyfHHC0_l-1">
          <mxGeometry y="80" width="140" height="30" as="geometry" />
        </mxCell>
        <mxCell id="FKf2mYU8j4RiyfHHC0_l-4" value="CROPS" style="swimlane;fontStyle=0;childLayout=stackLayout;horizontal=1;startSize=30;horizontalStack=0;resizeParent=1;resizeParentMax=0;resizeLast=0;collapsible=1;marginBottom=0;whiteSpace=wrap;html=1;labelBackgroundColor=none;rounded=0;fillColor=#F5AB50;strokeColor=#909090;fontColor=#1A1A1A;" vertex="1" parent="1">
          <mxGeometry x="530" y="-100" width="140" height="200" as="geometry" />
        </mxCell>
        <mxCell id="FKf2mYU8j4RiyfHHC0_l-5" value="&lt;u&gt;crop_id (PK)&lt;/u&gt;" style="text;strokeColor=none;fillColor=none;align=left;verticalAlign=middle;spacingLeft=4;spacingRight=4;overflow=hidden;points=[[0,0.5],[1,0.5]];portConstraint=eastwest;rotatable=0;whiteSpace=wrap;html=1;labelBackgroundColor=none;rounded=0;fontColor=#1A1A1A;" vertex="1" parent="FKf2mYU8j4RiyfHHC0_l-4">
          <mxGeometry y="30" width="140" height="30" as="geometry" />
        </mxCell>
        <mxCell id="FKf2mYU8j4RiyfHHC0_l-72" value="farmer_id (FK)" style="text;strokeColor=none;fillColor=none;align=left;verticalAlign=middle;spacingLeft=4;spacingRight=4;overflow=hidden;points=[[0,0.5],[1,0.5]];portConstraint=eastwest;rotatable=0;whiteSpace=wrap;html=1;labelBackgroundColor=none;rounded=0;fontColor=#1A1A1A;" vertex="1" parent="FKf2mYU8j4RiyfHHC0_l-4">
          <mxGeometry y="60" width="140" height="30" as="geometry" />
        </mxCell>
        <mxCell id="FKf2mYU8j4RiyfHHC0_l-6" value="crop_name" style="text;strokeColor=none;fillColor=none;align=left;verticalAlign=middle;spacingLeft=4;spacingRight=4;overflow=hidden;points=[[0,0.5],[1,0.5]];portConstraint=eastwest;rotatable=0;whiteSpace=wrap;html=1;labelBackgroundColor=none;rounded=0;fontColor=#1A1A1A;" vertex="1" parent="FKf2mYU8j4RiyfHHC0_l-4">
          <mxGeometry y="90" width="140" height="30" as="geometry" />
        </mxCell>
        <mxCell id="FKf2mYU8j4RiyfHHC0_l-7" value="growing_season" style="text;strokeColor=none;fillColor=none;align=left;verticalAlign=middle;spacingLeft=4;spacingRight=4;overflow=hidden;points=[[0,0.5],[1,0.5]];portConstraint=eastwest;rotatable=0;whiteSpace=wrap;html=1;labelBackgroundColor=none;rounded=0;fontColor=#1A1A1A;" vertex="1" parent="FKf2mYU8j4RiyfHHC0_l-4">
          <mxGeometry y="120" width="140" height="40" as="geometry" />
        </mxCell>
        <mxCell id="FKf2mYU8j4RiyfHHC0_l-74" value="suggested_price" style="text;strokeColor=none;fillColor=none;align=left;verticalAlign=middle;spacingLeft=4;spacingRight=4;overflow=hidden;points=[[0,0.5],[1,0.5]];portConstraint=eastwest;rotatable=0;whiteSpace=wrap;html=1;labelBackgroundColor=none;rounded=0;fontColor=#1A1A1A;" vertex="1" parent="FKf2mYU8j4RiyfHHC0_l-4">
          <mxGeometry y="160" width="140" height="40" as="geometry" />
        </mxCell>
        <mxCell id="FKf2mYU8j4RiyfHHC0_l-8" style="edgeStyle=orthogonalEdgeStyle;shape=flexArrow;rounded=0;orthogonalLoop=1;jettySize=auto;html=1;exitX=0.5;exitY=1;exitDx=0;exitDy=0;labelBackgroundColor=none;fontColor=default;strokeColor=#182E3E;" edge="1" parent="1">
          <mxGeometry relative="1" as="geometry">
            <mxPoint x="835" y="-120.00000000000023" as="sourcePoint" />
            <mxPoint x="835" y="-120.00000000000023" as="targetPoint" />
          </mxGeometry>
        </mxCell>
        <mxCell id="FKf2mYU8j4RiyfHHC0_l-9" style="edgeStyle=orthogonalEdgeStyle;shape=flexArrow;rounded=0;orthogonalLoop=1;jettySize=auto;html=1;exitX=0.5;exitY=1;exitDx=0;exitDy=0;labelBackgroundColor=none;fontColor=default;strokeColor=#182E3E;" edge="1" parent="1">
          <mxGeometry relative="1" as="geometry">
            <mxPoint x="835" y="-120.00000000000023" as="sourcePoint" />
            <mxPoint x="835" y="-120.00000000000023" as="targetPoint" />
          </mxGeometry>
        </mxCell>
        <mxCell id="FKf2mYU8j4RiyfHHC0_l-14" value="SUPPLIER" style="swimlane;fontStyle=0;childLayout=stackLayout;horizontal=1;startSize=30;horizontalStack=0;resizeParent=1;resizeParentMax=0;resizeLast=0;collapsible=1;marginBottom=0;whiteSpace=wrap;html=1;labelBackgroundColor=none;rounded=0;fillColor=#F5AB50;strokeColor=#909090;fontColor=#1A1A1A;" vertex="1" parent="1">
          <mxGeometry x="-40" y="-400" width="140" height="90" as="geometry" />
        </mxCell>
        <mxCell id="FKf2mYU8j4RiyfHHC0_l-15" value="&lt;u&gt;supplier_id (PK)&lt;/u&gt;" style="text;strokeColor=none;fillColor=none;align=left;verticalAlign=middle;spacingLeft=4;spacingRight=4;overflow=hidden;points=[[0,0.5],[1,0.5]];portConstraint=eastwest;rotatable=0;whiteSpace=wrap;html=1;labelBackgroundColor=none;rounded=0;fontColor=#1A1A1A;" vertex="1" parent="FKf2mYU8j4RiyfHHC0_l-14">
          <mxGeometry y="30" width="140" height="30" as="geometry" />
        </mxCell>
        <mxCell id="FKf2mYU8j4RiyfHHC0_l-16" value="location" style="text;strokeColor=none;fillColor=none;align=left;verticalAlign=middle;spacingLeft=4;spacingRight=4;overflow=hidden;points=[[0,0.5],[1,0.5]];portConstraint=eastwest;rotatable=0;whiteSpace=wrap;html=1;labelBackgroundColor=none;rounded=0;fontColor=#1A1A1A;" vertex="1" parent="FKf2mYU8j4RiyfHHC0_l-14">
          <mxGeometry y="60" width="140" height="30" as="geometry" />
        </mxCell>
        <mxCell id="FKf2mYU8j4RiyfHHC0_l-18" value="PURCHASE_ORDER" style="swimlane;fontStyle=0;childLayout=stackLayout;horizontal=1;startSize=30;horizontalStack=0;resizeParent=1;resizeParentMax=0;resizeLast=0;collapsible=1;marginBottom=0;whiteSpace=wrap;html=1;labelBackgroundColor=none;rounded=0;fillColor=#F5AB50;strokeColor=#909090;fontColor=#1A1A1A;" vertex="1" parent="1">
          <mxGeometry x="-20" y="-584" width="140" height="150" as="geometry" />
        </mxCell>
        <mxCell id="FKf2mYU8j4RiyfHHC0_l-19" value="&lt;u&gt;order_id(PK)&lt;/u&gt;" style="text;strokeColor=none;fillColor=none;align=left;verticalAlign=middle;spacingLeft=4;spacingRight=4;overflow=hidden;points=[[0,0.5],[1,0.5]];portConstraint=eastwest;rotatable=0;whiteSpace=wrap;html=1;labelBackgroundColor=none;rounded=0;fontColor=#1A1A1A;" vertex="1" parent="FKf2mYU8j4RiyfHHC0_l-18">
          <mxGeometry y="30" width="140" height="30" as="geometry" />
        </mxCell>
        <mxCell id="FKf2mYU8j4RiyfHHC0_l-78" value="buyer_id(FK)" style="text;strokeColor=none;fillColor=none;align=left;verticalAlign=middle;spacingLeft=4;spacingRight=4;overflow=hidden;points=[[0,0.5],[1,0.5]];portConstraint=eastwest;rotatable=0;whiteSpace=wrap;html=1;labelBackgroundColor=none;rounded=0;fontColor=#1A1A1A;" vertex="1" parent="FKf2mYU8j4RiyfHHC0_l-18">
          <mxGeometry y="60" width="140" height="30" as="geometry" />
        </mxCell>
        <mxCell id="FKf2mYU8j4RiyfHHC0_l-20" value="order_date" style="text;strokeColor=none;fillColor=none;align=left;verticalAlign=middle;spacingLeft=4;spacingRight=4;overflow=hidden;points=[[0,0.5],[1,0.5]];portConstraint=eastwest;rotatable=0;whiteSpace=wrap;html=1;labelBackgroundColor=none;rounded=0;fontColor=#1A1A1A;" vertex="1" parent="FKf2mYU8j4RiyfHHC0_l-18">
          <mxGeometry y="90" width="140" height="30" as="geometry" />
        </mxCell>
        <mxCell id="FKf2mYU8j4RiyfHHC0_l-21" value="payment_meathod" style="text;strokeColor=none;fillColor=none;align=left;verticalAlign=middle;spacingLeft=4;spacingRight=4;overflow=hidden;points=[[0,0.5],[1,0.5]];portConstraint=eastwest;rotatable=0;whiteSpace=wrap;html=1;labelBackgroundColor=none;rounded=0;fontColor=#1A1A1A;" vertex="1" parent="FKf2mYU8j4RiyfHHC0_l-18">
          <mxGeometry y="120" width="140" height="30" as="geometry" />
        </mxCell>
        <mxCell id="FKf2mYU8j4RiyfHHC0_l-22" value="BUYER" style="swimlane;fontStyle=0;childLayout=stackLayout;horizontal=1;startSize=30;horizontalStack=0;resizeParent=1;resizeParentMax=0;resizeLast=0;collapsible=1;marginBottom=0;whiteSpace=wrap;html=1;labelBackgroundColor=none;rounded=0;fillColor=#F5AB50;strokeColor=#909090;fontColor=#1A1A1A;" vertex="1" parent="1">
          <mxGeometry x="710" y="-530" width="140" height="120" as="geometry" />
        </mxCell>
        <mxCell id="FKf2mYU8j4RiyfHHC0_l-23" value="&lt;u&gt;buyer_id(PK)&lt;/u&gt;" style="text;strokeColor=none;fillColor=none;align=left;verticalAlign=middle;spacingLeft=4;spacingRight=4;overflow=hidden;points=[[0,0.5],[1,0.5]];portConstraint=eastwest;rotatable=0;whiteSpace=wrap;html=1;labelBackgroundColor=none;rounded=0;fontColor=#1A1A1A;" vertex="1" parent="FKf2mYU8j4RiyfHHC0_l-22">
          <mxGeometry y="30" width="140" height="30" as="geometry" />
        </mxCell>
        <mxCell id="FKf2mYU8j4RiyfHHC0_l-24" value="buying_location" style="text;strokeColor=none;fillColor=none;align=left;verticalAlign=middle;spacingLeft=4;spacingRight=4;overflow=hidden;points=[[0,0.5],[1,0.5]];portConstraint=eastwest;rotatable=0;whiteSpace=wrap;html=1;labelBackgroundColor=none;rounded=0;fontColor=#1A1A1A;" vertex="1" parent="FKf2mYU8j4RiyfHHC0_l-22">
          <mxGeometry y="60" width="140" height="30" as="geometry" />
        </mxCell>
        <mxCell id="FKf2mYU8j4RiyfHHC0_l-77" value="name" style="text;strokeColor=none;fillColor=none;align=left;verticalAlign=middle;spacingLeft=4;spacingRight=4;overflow=hidden;points=[[0,0.5],[1,0.5]];portConstraint=eastwest;rotatable=0;whiteSpace=wrap;html=1;labelBackgroundColor=none;rounded=0;fontColor=#1A1A1A;" vertex="1" parent="FKf2mYU8j4RiyfHHC0_l-22">
          <mxGeometry y="90" width="140" height="30" as="geometry" />
        </mxCell>
        <mxCell id="FKf2mYU8j4RiyfHHC0_l-25" style="edgeStyle=orthogonalEdgeStyle;rounded=0;orthogonalLoop=1;jettySize=auto;html=1;entryX=-0.017;entryY=0.212;entryDx=0;entryDy=0;entryPerimeter=0;startArrow=ERoneToMany;startFill=0;endArrow=ERmandOne;endFill=0;exitX=0.91;exitY=-0.004;exitDx=0;exitDy=0;exitPerimeter=0;labelBackgroundColor=none;fontColor=default;strokeColor=#182E3E;" edge="1" parent="1" source="FKf2mYU8j4RiyfHHC0_l-28" target="FKf2mYU8j4RiyfHHC0_l-16">
          <mxGeometry relative="1" as="geometry">
            <mxPoint x="-150" y="-205" as="sourcePoint" />
          </mxGeometry>
        </mxCell>
        <mxCell id="FKf2mYU8j4RiyfHHC0_l-27" style="edgeStyle=orthogonalEdgeStyle;rounded=0;orthogonalLoop=1;jettySize=auto;html=1;exitX=0;exitY=0.5;exitDx=0;exitDy=0;entryX=0.992;entryY=0.172;entryDx=0;entryDy=0;entryPerimeter=0;endArrow=ERmany;endFill=0;startArrow=ERmandOne;startFill=0;labelBackgroundColor=none;fontColor=default;strokeColor=#182E3E;" edge="1" parent="1" source="FKf2mYU8j4RiyfHHC0_l-23" target="FKf2mYU8j4RiyfHHC0_l-18">
          <mxGeometry relative="1" as="geometry" />
        </mxCell>
        <mxCell id="FKf2mYU8j4RiyfHHC0_l-28" value="SUPPLY_ORDER" style="shape=table;startSize=30;container=1;collapsible=1;childLayout=tableLayout;fixedRows=1;rowLines=0;fontStyle=1;align=center;resizeLast=1;html=1;labelBackgroundColor=none;rounded=1;fillColor=#F5AB50;strokeColor=#909090;fontColor=#1A1A1A;" vertex="1" parent="1">
          <mxGeometry x="-340" y="-240" width="180" height="170" as="geometry" />
        </mxCell>
        <mxCell id="FKf2mYU8j4RiyfHHC0_l-29" value="" style="shape=tableRow;horizontal=0;startSize=0;swimlaneHead=0;swimlaneBody=0;fillColor=none;collapsible=0;dropTarget=0;points=[[0,0.5],[1,0.5]];portConstraint=eastwest;top=0;left=0;right=0;bottom=1;labelBackgroundColor=none;rounded=0;strokeColor=#909090;fontColor=#1A1A1A;" vertex="1" parent="FKf2mYU8j4RiyfHHC0_l-28">
          <mxGeometry y="30" width="180" height="30" as="geometry" />
        </mxCell>
        <mxCell id="FKf2mYU8j4RiyfHHC0_l-30" value="PK" style="shape=partialRectangle;connectable=0;fillColor=none;top=0;left=0;bottom=0;right=0;fontStyle=1;overflow=hidden;whiteSpace=wrap;html=1;labelBackgroundColor=none;rounded=0;strokeColor=#909090;fontColor=#1A1A1A;" vertex="1" parent="FKf2mYU8j4RiyfHHC0_l-29">
          <mxGeometry width="30" height="30" as="geometry">
            <mxRectangle width="30" height="30" as="alternateBounds" />
          </mxGeometry>
        </mxCell>
        <mxCell id="FKf2mYU8j4RiyfHHC0_l-31" value="supply_order_ID" style="shape=partialRectangle;connectable=0;fillColor=none;top=0;left=0;bottom=0;right=0;align=left;spacingLeft=6;fontStyle=5;overflow=hidden;whiteSpace=wrap;html=1;labelBackgroundColor=none;rounded=0;strokeColor=#909090;fontColor=#1A1A1A;" vertex="1" parent="FKf2mYU8j4RiyfHHC0_l-29">
          <mxGeometry x="30" width="150" height="30" as="geometry">
            <mxRectangle width="150" height="30" as="alternateBounds" />
          </mxGeometry>
        </mxCell>
        <mxCell id="FKf2mYU8j4RiyfHHC0_l-32" value="" style="shape=tableRow;horizontal=0;startSize=0;swimlaneHead=0;swimlaneBody=0;fillColor=none;collapsible=0;dropTarget=0;points=[[0,0.5],[1,0.5]];portConstraint=eastwest;top=0;left=0;right=0;bottom=0;labelBackgroundColor=none;rounded=0;strokeColor=#909090;fontColor=#1A1A1A;" vertex="1" parent="FKf2mYU8j4RiyfHHC0_l-28">
          <mxGeometry y="60" width="180" height="30" as="geometry" />
        </mxCell>
        <mxCell id="FKf2mYU8j4RiyfHHC0_l-33" value="" style="shape=partialRectangle;connectable=0;fillColor=none;top=0;left=0;bottom=0;right=0;editable=1;overflow=hidden;whiteSpace=wrap;html=1;labelBackgroundColor=none;rounded=0;strokeColor=#909090;fontColor=#1A1A1A;" vertex="1" parent="FKf2mYU8j4RiyfHHC0_l-32">
          <mxGeometry width="30" height="30" as="geometry">
            <mxRectangle width="30" height="30" as="alternateBounds" />
          </mxGeometry>
        </mxCell>
        <mxCell id="FKf2mYU8j4RiyfHHC0_l-34" value="supplier_id(FK)" style="shape=partialRectangle;connectable=0;fillColor=none;top=0;left=0;bottom=0;right=0;align=left;spacingLeft=6;overflow=hidden;whiteSpace=wrap;html=1;labelBackgroundColor=none;rounded=0;strokeColor=#909090;fontColor=#1A1A1A;" vertex="1" parent="FKf2mYU8j4RiyfHHC0_l-32">
          <mxGeometry x="30" width="150" height="30" as="geometry">
            <mxRectangle width="150" height="30" as="alternateBounds" />
          </mxGeometry>
        </mxCell>
        <mxCell id="FKf2mYU8j4RiyfHHC0_l-35" value="" style="shape=tableRow;horizontal=0;startSize=0;swimlaneHead=0;swimlaneBody=0;fillColor=none;collapsible=0;dropTarget=0;points=[[0,0.5],[1,0.5]];portConstraint=eastwest;top=0;left=0;right=0;bottom=0;labelBackgroundColor=none;rounded=0;strokeColor=#909090;fontColor=#1A1A1A;" vertex="1" parent="FKf2mYU8j4RiyfHHC0_l-28">
          <mxGeometry y="90" width="180" height="20" as="geometry" />
        </mxCell>
        <mxCell id="FKf2mYU8j4RiyfHHC0_l-36" value="" style="shape=partialRectangle;connectable=0;fillColor=none;top=0;left=0;bottom=0;right=0;editable=1;overflow=hidden;whiteSpace=wrap;html=1;labelBackgroundColor=none;rounded=0;strokeColor=#909090;fontColor=#1A1A1A;" vertex="1" parent="FKf2mYU8j4RiyfHHC0_l-35">
          <mxGeometry width="30" height="20" as="geometry">
            <mxRectangle width="30" height="20" as="alternateBounds" />
          </mxGeometry>
        </mxCell>
        <mxCell id="FKf2mYU8j4RiyfHHC0_l-37" value="warehouse_id(FK)" style="shape=partialRectangle;connectable=0;fillColor=none;top=0;left=0;bottom=0;right=0;align=left;spacingLeft=6;overflow=hidden;whiteSpace=wrap;html=1;labelBackgroundColor=none;rounded=0;strokeColor=#909090;fontColor=#1A1A1A;" vertex="1" parent="FKf2mYU8j4RiyfHHC0_l-35">
          <mxGeometry x="30" width="150" height="20" as="geometry">
            <mxRectangle width="150" height="20" as="alternateBounds" />
          </mxGeometry>
        </mxCell>
        <mxCell id="FKf2mYU8j4RiyfHHC0_l-82" style="shape=tableRow;horizontal=0;startSize=0;swimlaneHead=0;swimlaneBody=0;fillColor=none;collapsible=0;dropTarget=0;points=[[0,0.5],[1,0.5]];portConstraint=eastwest;top=0;left=0;right=0;bottom=0;labelBackgroundColor=none;rounded=0;strokeColor=#909090;fontColor=#1A1A1A;" vertex="1" parent="FKf2mYU8j4RiyfHHC0_l-28">
          <mxGeometry y="110" width="180" height="20" as="geometry" />
        </mxCell>
        <mxCell id="FKf2mYU8j4RiyfHHC0_l-83" style="shape=partialRectangle;connectable=0;fillColor=none;top=0;left=0;bottom=0;right=0;editable=1;overflow=hidden;whiteSpace=wrap;html=1;labelBackgroundColor=none;rounded=0;strokeColor=#909090;fontColor=#1A1A1A;" vertex="1" parent="FKf2mYU8j4RiyfHHC0_l-82">
          <mxGeometry width="30" height="20" as="geometry">
            <mxRectangle width="30" height="20" as="alternateBounds" />
          </mxGeometry>
        </mxCell>
        <mxCell id="FKf2mYU8j4RiyfHHC0_l-84" value="order_date" style="shape=partialRectangle;connectable=0;fillColor=none;top=0;left=0;bottom=0;right=0;align=left;spacingLeft=6;overflow=hidden;whiteSpace=wrap;html=1;labelBackgroundColor=none;rounded=0;strokeColor=#909090;fontColor=#1A1A1A;" vertex="1" parent="FKf2mYU8j4RiyfHHC0_l-82">
          <mxGeometry x="30" width="150" height="20" as="geometry">
            <mxRectangle width="150" height="20" as="alternateBounds" />
          </mxGeometry>
        </mxCell>
        <mxCell id="FKf2mYU8j4RiyfHHC0_l-79" style="shape=tableRow;horizontal=0;startSize=0;swimlaneHead=0;swimlaneBody=0;fillColor=none;collapsible=0;dropTarget=0;points=[[0,0.5],[1,0.5]];portConstraint=eastwest;top=0;left=0;right=0;bottom=0;labelBackgroundColor=none;rounded=0;strokeColor=#909090;fontColor=#1A1A1A;" vertex="1" parent="FKf2mYU8j4RiyfHHC0_l-28">
          <mxGeometry y="130" width="180" height="20" as="geometry" />
        </mxCell>
        <mxCell id="FKf2mYU8j4RiyfHHC0_l-80" style="shape=partialRectangle;connectable=0;fillColor=none;top=0;left=0;bottom=0;right=0;editable=1;overflow=hidden;whiteSpace=wrap;html=1;labelBackgroundColor=none;rounded=0;strokeColor=#909090;fontColor=#1A1A1A;" vertex="1" parent="FKf2mYU8j4RiyfHHC0_l-79">
          <mxGeometry width="30" height="20" as="geometry">
            <mxRectangle width="30" height="20" as="alternateBounds" />
          </mxGeometry>
        </mxCell>
        <mxCell id="FKf2mYU8j4RiyfHHC0_l-81" value="total_quantity" style="shape=partialRectangle;connectable=0;fillColor=none;top=0;left=0;bottom=0;right=0;align=left;spacingLeft=6;overflow=hidden;whiteSpace=wrap;html=1;labelBackgroundColor=none;rounded=0;strokeColor=#909090;fontColor=#1A1A1A;" vertex="1" parent="FKf2mYU8j4RiyfHHC0_l-79">
          <mxGeometry x="30" width="150" height="20" as="geometry">
            <mxRectangle width="150" height="20" as="alternateBounds" />
          </mxGeometry>
        </mxCell>
        <mxCell id="FKf2mYU8j4RiyfHHC0_l-85" style="shape=tableRow;horizontal=0;startSize=0;swimlaneHead=0;swimlaneBody=0;fillColor=none;collapsible=0;dropTarget=0;points=[[0,0.5],[1,0.5]];portConstraint=eastwest;top=0;left=0;right=0;bottom=0;labelBackgroundColor=none;rounded=0;strokeColor=#909090;fontColor=#1A1A1A;" vertex="1" parent="FKf2mYU8j4RiyfHHC0_l-28">
          <mxGeometry y="150" width="180" height="20" as="geometry" />
        </mxCell>
        <mxCell id="FKf2mYU8j4RiyfHHC0_l-86" style="shape=partialRectangle;connectable=0;fillColor=none;top=0;left=0;bottom=0;right=0;editable=1;overflow=hidden;whiteSpace=wrap;html=1;labelBackgroundColor=none;rounded=0;strokeColor=#909090;fontColor=#1A1A1A;" vertex="1" parent="FKf2mYU8j4RiyfHHC0_l-85">
          <mxGeometry width="30" height="20" as="geometry">
            <mxRectangle width="30" height="20" as="alternateBounds" />
          </mxGeometry>
        </mxCell>
        <mxCell id="FKf2mYU8j4RiyfHHC0_l-87" value="total_price" style="shape=partialRectangle;connectable=0;fillColor=none;top=0;left=0;bottom=0;right=0;align=left;spacingLeft=6;overflow=hidden;whiteSpace=wrap;html=1;labelBackgroundColor=none;rounded=0;strokeColor=#909090;fontColor=#1A1A1A;" vertex="1" parent="FKf2mYU8j4RiyfHHC0_l-85">
          <mxGeometry x="30" width="150" height="20" as="geometry">
            <mxRectangle width="150" height="20" as="alternateBounds" />
          </mxGeometry>
        </mxCell>
        <mxCell id="FKf2mYU8j4RiyfHHC0_l-39" style="edgeStyle=orthogonalEdgeStyle;rounded=0;orthogonalLoop=1;jettySize=auto;html=1;entryX=0.877;entryY=0.012;entryDx=0;entryDy=0;entryPerimeter=0;endArrow=ERmany;endFill=0;startArrow=ERmany;startFill=0;labelBackgroundColor=none;fontColor=default;strokeColor=#182E3E;" edge="1" parent="1" source="FKf2mYU8j4RiyfHHC0_l-20" target="FKf2mYU8j4RiyfHHC0_l-4">
          <mxGeometry relative="1" as="geometry" />
        </mxCell>
        <mxCell id="FKf2mYU8j4RiyfHHC0_l-40" value="WAREHOUSE" style="shape=table;startSize=35;container=1;collapsible=1;childLayout=tableLayout;fixedRows=1;rowLines=0;fontStyle=1;align=center;resizeLast=1;html=1;labelBackgroundColor=none;rounded=0;fillColor=#F5AB50;strokeColor=#909090;fontColor=#1A1A1A;" vertex="1" parent="1">
          <mxGeometry x="230" y="-410" width="320" height="155" as="geometry" />
        </mxCell>
        <mxCell id="FKf2mYU8j4RiyfHHC0_l-41" value="" style="shape=tableRow;horizontal=0;startSize=0;swimlaneHead=0;swimlaneBody=0;fillColor=none;collapsible=0;dropTarget=0;points=[[0,0.5],[1,0.5]];portConstraint=eastwest;top=0;left=0;right=0;bottom=1;labelBackgroundColor=none;rounded=0;strokeColor=#909090;fontColor=#1A1A1A;" vertex="1" parent="FKf2mYU8j4RiyfHHC0_l-40">
          <mxGeometry y="35" width="320" height="30" as="geometry" />
        </mxCell>
        <mxCell id="FKf2mYU8j4RiyfHHC0_l-42" value="PK" style="shape=partialRectangle;connectable=0;fillColor=none;top=0;left=0;bottom=0;right=0;fontStyle=1;overflow=hidden;whiteSpace=wrap;html=1;labelBackgroundColor=none;rounded=0;strokeColor=#909090;fontColor=#1A1A1A;" vertex="1" parent="FKf2mYU8j4RiyfHHC0_l-41">
          <mxGeometry width="30" height="30" as="geometry">
            <mxRectangle width="30" height="30" as="alternateBounds" />
          </mxGeometry>
        </mxCell>
        <mxCell id="FKf2mYU8j4RiyfHHC0_l-43" value="warehouse_id(PK)" style="shape=partialRectangle;connectable=0;fillColor=none;top=0;left=0;bottom=0;right=0;align=left;spacingLeft=6;fontStyle=5;overflow=hidden;whiteSpace=wrap;html=1;labelBackgroundColor=none;rounded=0;strokeColor=#909090;fontColor=#1A1A1A;" vertex="1" parent="FKf2mYU8j4RiyfHHC0_l-41">
          <mxGeometry x="30" width="290" height="30" as="geometry">
            <mxRectangle width="290" height="30" as="alternateBounds" />
          </mxGeometry>
        </mxCell>
        <mxCell id="FKf2mYU8j4RiyfHHC0_l-44" value="" style="shape=tableRow;horizontal=0;startSize=0;swimlaneHead=0;swimlaneBody=0;fillColor=none;collapsible=0;dropTarget=0;points=[[0,0.5],[1,0.5]];portConstraint=eastwest;top=0;left=0;right=0;bottom=0;labelBackgroundColor=none;rounded=0;strokeColor=#909090;fontColor=#1A1A1A;" vertex="1" parent="FKf2mYU8j4RiyfHHC0_l-40">
          <mxGeometry y="65" width="320" height="30" as="geometry" />
        </mxCell>
        <mxCell id="FKf2mYU8j4RiyfHHC0_l-45" value="" style="shape=partialRectangle;connectable=0;fillColor=none;top=0;left=0;bottom=0;right=0;editable=1;overflow=hidden;whiteSpace=wrap;html=1;labelBackgroundColor=none;rounded=0;strokeColor=#909090;fontColor=#1A1A1A;" vertex="1" parent="FKf2mYU8j4RiyfHHC0_l-44">
          <mxGeometry width="30" height="30" as="geometry">
            <mxRectangle width="30" height="30" as="alternateBounds" />
          </mxGeometry>
        </mxCell>
        <mxCell id="FKf2mYU8j4RiyfHHC0_l-46" value="zone_number" style="shape=partialRectangle;connectable=0;fillColor=none;top=0;left=0;bottom=0;right=0;align=left;spacingLeft=6;overflow=hidden;whiteSpace=wrap;html=1;labelBackgroundColor=none;rounded=0;strokeColor=#909090;fontColor=#1A1A1A;" vertex="1" parent="FKf2mYU8j4RiyfHHC0_l-44">
          <mxGeometry x="30" width="290" height="30" as="geometry">
            <mxRectangle width="290" height="30" as="alternateBounds" />
          </mxGeometry>
        </mxCell>
        <mxCell id="FKf2mYU8j4RiyfHHC0_l-47" value="" style="shape=tableRow;horizontal=0;startSize=0;swimlaneHead=0;swimlaneBody=0;fillColor=none;collapsible=0;dropTarget=0;points=[[0,0.5],[1,0.5]];portConstraint=eastwest;top=0;left=0;right=0;bottom=0;labelBackgroundColor=none;rounded=0;strokeColor=#909090;fontColor=#1A1A1A;" vertex="1" parent="FKf2mYU8j4RiyfHHC0_l-40">
          <mxGeometry y="95" width="320" height="30" as="geometry" />
        </mxCell>
        <mxCell id="FKf2mYU8j4RiyfHHC0_l-48" value="" style="shape=partialRectangle;connectable=0;fillColor=none;top=0;left=0;bottom=0;right=0;editable=1;overflow=hidden;whiteSpace=wrap;html=1;labelBackgroundColor=none;rounded=0;strokeColor=#909090;fontColor=#1A1A1A;" vertex="1" parent="FKf2mYU8j4RiyfHHC0_l-47">
          <mxGeometry width="30" height="30" as="geometry">
            <mxRectangle width="30" height="30" as="alternateBounds" />
          </mxGeometry>
        </mxCell>
        <mxCell id="FKf2mYU8j4RiyfHHC0_l-49" value="warehouse_number" style="shape=partialRectangle;connectable=0;fillColor=none;top=0;left=0;bottom=0;right=0;align=left;spacingLeft=6;overflow=hidden;whiteSpace=wrap;html=1;labelBackgroundColor=none;rounded=0;strokeColor=#909090;fontColor=#1A1A1A;" vertex="1" parent="FKf2mYU8j4RiyfHHC0_l-47">
          <mxGeometry x="30" width="290" height="30" as="geometry">
            <mxRectangle width="290" height="30" as="alternateBounds" />
          </mxGeometry>
        </mxCell>
        <mxCell id="FKf2mYU8j4RiyfHHC0_l-50" value="" style="shape=tableRow;horizontal=0;startSize=0;swimlaneHead=0;swimlaneBody=0;fillColor=none;collapsible=0;dropTarget=0;points=[[0,0.5],[1,0.5]];portConstraint=eastwest;top=0;left=0;right=0;bottom=0;labelBackgroundColor=none;rounded=0;strokeColor=#909090;fontColor=#1A1A1A;" vertex="1" parent="FKf2mYU8j4RiyfHHC0_l-40">
          <mxGeometry y="125" width="320" height="30" as="geometry" />
        </mxCell>
        <mxCell id="FKf2mYU8j4RiyfHHC0_l-51" value="" style="shape=partialRectangle;connectable=0;fillColor=none;top=0;left=0;bottom=0;right=0;editable=1;overflow=hidden;whiteSpace=wrap;html=1;labelBackgroundColor=none;rounded=0;strokeColor=#909090;fontColor=#1A1A1A;" vertex="1" parent="FKf2mYU8j4RiyfHHC0_l-50">
          <mxGeometry width="30" height="30" as="geometry">
            <mxRectangle width="30" height="30" as="alternateBounds" />
          </mxGeometry>
        </mxCell>
        <mxCell id="FKf2mYU8j4RiyfHHC0_l-52" value="capacity" style="shape=partialRectangle;connectable=0;fillColor=none;top=0;left=0;bottom=0;right=0;align=left;spacingLeft=6;overflow=hidden;whiteSpace=wrap;html=1;labelBackgroundColor=none;rounded=0;strokeColor=#909090;fontColor=#1A1A1A;" vertex="1" parent="FKf2mYU8j4RiyfHHC0_l-50">
          <mxGeometry x="30" width="290" height="30" as="geometry">
            <mxRectangle width="290" height="30" as="alternateBounds" />
          </mxGeometry>
        </mxCell>
        <mxCell id="FKf2mYU8j4RiyfHHC0_l-53" style="edgeStyle=orthogonalEdgeStyle;rounded=0;orthogonalLoop=1;jettySize=auto;html=1;exitX=1;exitY=0.5;exitDx=0;exitDy=0;entryX=0.188;entryY=0.032;entryDx=0;entryDy=0;entryPerimeter=0;endArrow=ERmandOne;endFill=0;startArrow=ERmany;startFill=0;labelBackgroundColor=none;fontColor=default;strokeColor=#182E3E;" edge="1" parent="1" source="FKf2mYU8j4RiyfHHC0_l-21" target="FKf2mYU8j4RiyfHHC0_l-40">
          <mxGeometry relative="1" as="geometry">
            <mxPoint x="260" y="-410" as="targetPoint" />
          </mxGeometry>
        </mxCell>
        <mxCell id="FKf2mYU8j4RiyfHHC0_l-55" value="date" style="shape=ext;margin=3;double=1;whiteSpace=wrap;html=1;align=center;labelBackgroundColor=none;rounded=0;fillColor=#F5AB50;strokeColor=#909090;fontColor=#1A1A1A;" vertex="1" parent="1">
          <mxGeometry x="870" y="-100" width="220" height="150" as="geometry" />
        </mxCell>
        <mxCell id="FKf2mYU8j4RiyfHHC0_l-58" value="" style="shape=link;html=1;rounded=0;labelBackgroundColor=none;fontColor=default;strokeColor=#182E3E;" edge="1" parent="1">
          <mxGeometry width="100" relative="1" as="geometry">
            <mxPoint x="920" as="sourcePoint" />
            <mxPoint x="1020" as="targetPoint" />
          </mxGeometry>
        </mxCell>
        <mxCell id="FKf2mYU8j4RiyfHHC0_l-59" value="&lt;font style=&quot;font-size: 12px;&quot;&gt;pricevalue&lt;/font&gt;" style="text;html=1;align=center;verticalAlign=middle;whiteSpace=wrap;rounded=0;labelBackgroundColor=none;fontColor=#1A1A1A;" vertex="1" parent="1">
          <mxGeometry x="950" y="10" width="60" height="30" as="geometry" />
        </mxCell>
        <mxCell id="FKf2mYU8j4RiyfHHC0_l-60" style="edgeStyle=orthogonalEdgeStyle;rounded=0;orthogonalLoop=1;jettySize=auto;html=1;entryX=0.024;entryY=0.671;entryDx=0;entryDy=0;entryPerimeter=0;startArrow=ERone;startFill=0;endArrow=ERmany;endFill=0;jumpSize=12;labelBackgroundColor=none;fontColor=default;strokeColor=#182E3E;" edge="1" parent="1" source="FKf2mYU8j4RiyfHHC0_l-6" target="FKf2mYU8j4RiyfHHC0_l-55">
          <mxGeometry relative="1" as="geometry" />
        </mxCell>
        <mxCell id="FKf2mYU8j4RiyfHHC0_l-61" style="edgeStyle=orthogonalEdgeStyle;rounded=0;orthogonalLoop=1;jettySize=auto;html=1;dashed=1;endArrow=none;endFill=0;labelBackgroundColor=none;fontColor=default;strokeColor=#182E3E;" edge="1" parent="1" source="FKf2mYU8j4RiyfHHC0_l-62">
          <mxGeometry relative="1" as="geometry">
            <mxPoint x="650" y="-310.0000000000002" as="targetPoint" />
          </mxGeometry>
        </mxCell>
        <mxCell id="FKf2mYU8j4RiyfHHC0_l-62" value="order_id(FK)&lt;br&gt;crop_id(FK)&lt;br&gt;quantity&lt;div&gt;unit_price&lt;/div&gt;" style="rounded=0;whiteSpace=wrap;html=1;labelBackgroundColor=none;fillColor=#F5AB50;strokeColor=#909090;fontColor=#1A1A1A;" vertex="1" parent="1">
          <mxGeometry x="770" y="-340" width="120" height="60" as="geometry" />
        </mxCell>
        <mxCell id="FKf2mYU8j4RiyfHHC0_l-63" value="PURCHASE_REC" style="text;html=1;align=center;verticalAlign=middle;whiteSpace=wrap;rounded=0;labelBackgroundColor=none;fontColor=#1A1A1A;" vertex="1" parent="1">
          <mxGeometry x="940" y="-80" width="60" height="30" as="geometry" />
        </mxCell>
        <mxCell id="FKf2mYU8j4RiyfHHC0_l-64" value="&lt;div&gt;&lt;br&gt;&lt;/div&gt;&lt;div&gt;crop_id(PK)&lt;/div&gt;warehouse_id(FK)&lt;br&gt;&lt;div&gt;stored_quantity&lt;/div&gt;&lt;div&gt;unit_price&lt;/div&gt;" style="rounded=1;whiteSpace=wrap;html=1;labelBackgroundColor=none;fillColor=#F5AB50;strokeColor=#909090;fontColor=#1A1A1A;" vertex="1" parent="1">
          <mxGeometry x="720" y="-200" width="120" height="90" as="geometry" />
        </mxCell>
        <mxCell id="FKf2mYU8j4RiyfHHC0_l-65" style="edgeStyle=orthogonalEdgeStyle;rounded=0;orthogonalLoop=1;jettySize=auto;html=1;entryX=0.704;entryY=0.031;entryDx=0;entryDy=0;entryPerimeter=0;endArrow=ERmany;endFill=0;startArrow=ERmandOne;startFill=0;labelBackgroundColor=none;strokeColor=#182E3E;fontColor=default;" edge="1" parent="1" source="FKf2mYU8j4RiyfHHC0_l-2" target="FKf2mYU8j4RiyfHHC0_l-4">
          <mxGeometry relative="1" as="geometry" />
        </mxCell>
        <mxCell id="FKf2mYU8j4RiyfHHC0_l-66" style="edgeStyle=orthogonalEdgeStyle;rounded=0;orthogonalLoop=1;jettySize=auto;html=1;entryX=0.451;entryY=1.007;entryDx=0;entryDy=0;entryPerimeter=0;endArrow=ERoneToMany;endFill=0;startArrow=ERmandOne;startFill=0;" edge="1" parent="1" source="FKf2mYU8j4RiyfHHC0_l-5" target="FKf2mYU8j4RiyfHHC0_l-64">
          <mxGeometry relative="1" as="geometry" />
        </mxCell>
        <mxCell id="FKf2mYU8j4RiyfHHC0_l-67" style="edgeStyle=orthogonalEdgeStyle;rounded=0;orthogonalLoop=1;jettySize=auto;html=1;endArrow=ERoneToMany;endFill=0;startArrow=ERmandOne;startFill=0;" edge="1" parent="1" source="FKf2mYU8j4RiyfHHC0_l-44" target="FKf2mYU8j4RiyfHHC0_l-64">
          <mxGeometry relative="1" as="geometry">
            <Array as="points">
              <mxPoint x="670" y="-330" />
              <mxPoint x="670" y="-230" />
              <mxPoint x="770" y="-230" />
            </Array>
          </mxGeometry>
        </mxCell>
        <mxCell id="FKf2mYU8j4RiyfHHC0_l-76" value="" style="edgeStyle=entityRelationEdgeStyle;fontSize=12;html=1;endArrow=ERmany;startArrow=ERmany;rounded=0;" edge="1" parent="1" source="FKf2mYU8j4RiyfHHC0_l-14" target="FKf2mYU8j4RiyfHHC0_l-40">
          <mxGeometry width="100" height="100" relative="1" as="geometry">
            <mxPoint x="100" y="-330" as="sourcePoint" />
            <mxPoint x="230" y="-322.5" as="targetPoint" />
          </mxGeometry>
        </mxCell>
        <mxCell id="FKf2mYU8j4RiyfHHC0_l-88" value="" style="edgeStyle=entityRelationEdgeStyle;fontSize=12;html=1;endArrow=ERmany;startArrow=ERmany;rounded=0;" edge="1" parent="1">
          <mxGeometry width="100" height="100" relative="1" as="geometry">
            <mxPoint x="-160" y="-122.5" as="sourcePoint" />
            <mxPoint x="230" y="-300" as="targetPoint" />
          </mxGeometry>
        </mxCell>
        <mxCell id="FKf2mYU8j4RiyfHHC0_l-90" value="Weather data" style="shape=table;startSize=35;container=1;collapsible=1;childLayout=tableLayout;fixedRows=1;rowLines=0;fontStyle=1;align=center;resizeLast=1;html=1;labelBackgroundColor=none;rounded=0;fillColor=#F5AB50;strokeColor=#909090;fontColor=#1A1A1A;" vertex="1" parent="1">
          <mxGeometry x="-370" y="-30" width="320" height="215" as="geometry" />
        </mxCell>
        <mxCell id="FKf2mYU8j4RiyfHHC0_l-91" value="" style="shape=tableRow;horizontal=0;startSize=0;swimlaneHead=0;swimlaneBody=0;fillColor=none;collapsible=0;dropTarget=0;points=[[0,0.5],[1,0.5]];portConstraint=eastwest;top=0;left=0;right=0;bottom=1;labelBackgroundColor=none;rounded=0;strokeColor=#909090;fontColor=#1A1A1A;" vertex="1" parent="FKf2mYU8j4RiyfHHC0_l-90">
          <mxGeometry y="35" width="320" height="30" as="geometry" />
        </mxCell>
        <mxCell id="FKf2mYU8j4RiyfHHC0_l-92" value="PK" style="shape=partialRectangle;connectable=0;fillColor=none;top=0;left=0;bottom=0;right=0;fontStyle=1;overflow=hidden;whiteSpace=wrap;html=1;labelBackgroundColor=none;rounded=0;strokeColor=#909090;fontColor=#1A1A1A;" vertex="1" parent="FKf2mYU8j4RiyfHHC0_l-91">
          <mxGeometry width="30" height="30" as="geometry">
            <mxRectangle width="30" height="30" as="alternateBounds" />
          </mxGeometry>
        </mxCell>
        <mxCell id="FKf2mYU8j4RiyfHHC0_l-93" value="weather_id(PK)" style="shape=partialRectangle;connectable=0;fillColor=none;top=0;left=0;bottom=0;right=0;align=left;spacingLeft=6;fontStyle=5;overflow=hidden;whiteSpace=wrap;html=1;labelBackgroundColor=none;rounded=0;strokeColor=#909090;fontColor=#1A1A1A;" vertex="1" parent="FKf2mYU8j4RiyfHHC0_l-91">
          <mxGeometry x="30" width="290" height="30" as="geometry">
            <mxRectangle width="290" height="30" as="alternateBounds" />
          </mxGeometry>
        </mxCell>
        <mxCell id="FKf2mYU8j4RiyfHHC0_l-94" value="" style="shape=tableRow;horizontal=0;startSize=0;swimlaneHead=0;swimlaneBody=0;fillColor=none;collapsible=0;dropTarget=0;points=[[0,0.5],[1,0.5]];portConstraint=eastwest;top=0;left=0;right=0;bottom=0;labelBackgroundColor=none;rounded=0;strokeColor=#909090;fontColor=#1A1A1A;" vertex="1" parent="FKf2mYU8j4RiyfHHC0_l-90">
          <mxGeometry y="65" width="320" height="30" as="geometry" />
        </mxCell>
        <mxCell id="FKf2mYU8j4RiyfHHC0_l-95" value="" style="shape=partialRectangle;connectable=0;fillColor=none;top=0;left=0;bottom=0;right=0;editable=1;overflow=hidden;whiteSpace=wrap;html=1;labelBackgroundColor=none;rounded=0;strokeColor=#909090;fontColor=#1A1A1A;" vertex="1" parent="FKf2mYU8j4RiyfHHC0_l-94">
          <mxGeometry width="30" height="30" as="geometry">
            <mxRectangle width="30" height="30" as="alternateBounds" />
          </mxGeometry>
        </mxCell>
        <mxCell id="FKf2mYU8j4RiyfHHC0_l-96" value="location_id(FK)" style="shape=partialRectangle;connectable=0;fillColor=none;top=0;left=0;bottom=0;right=0;align=left;spacingLeft=6;overflow=hidden;whiteSpace=wrap;html=1;labelBackgroundColor=none;rounded=0;strokeColor=#909090;fontColor=#1A1A1A;" vertex="1" parent="FKf2mYU8j4RiyfHHC0_l-94">
          <mxGeometry x="30" width="290" height="30" as="geometry">
            <mxRectangle width="290" height="30" as="alternateBounds" />
          </mxGeometry>
        </mxCell>
        <mxCell id="FKf2mYU8j4RiyfHHC0_l-97" value="" style="shape=tableRow;horizontal=0;startSize=0;swimlaneHead=0;swimlaneBody=0;fillColor=none;collapsible=0;dropTarget=0;points=[[0,0.5],[1,0.5]];portConstraint=eastwest;top=0;left=0;right=0;bottom=0;labelBackgroundColor=none;rounded=0;strokeColor=#909090;fontColor=#1A1A1A;" vertex="1" parent="FKf2mYU8j4RiyfHHC0_l-90">
          <mxGeometry y="95" width="320" height="30" as="geometry" />
        </mxCell>
        <mxCell id="FKf2mYU8j4RiyfHHC0_l-98" value="" style="shape=partialRectangle;connectable=0;fillColor=none;top=0;left=0;bottom=0;right=0;editable=1;overflow=hidden;whiteSpace=wrap;html=1;labelBackgroundColor=none;rounded=0;strokeColor=#909090;fontColor=#1A1A1A;" vertex="1" parent="FKf2mYU8j4RiyfHHC0_l-97">
          <mxGeometry width="30" height="30" as="geometry">
            <mxRectangle width="30" height="30" as="alternateBounds" />
          </mxGeometry>
        </mxCell>
        <mxCell id="FKf2mYU8j4RiyfHHC0_l-99" value="date" style="shape=partialRectangle;connectable=0;fillColor=none;top=0;left=0;bottom=0;right=0;align=left;spacingLeft=6;overflow=hidden;whiteSpace=wrap;html=1;labelBackgroundColor=none;rounded=0;strokeColor=#909090;fontColor=#1A1A1A;" vertex="1" parent="FKf2mYU8j4RiyfHHC0_l-97">
          <mxGeometry x="30" width="290" height="30" as="geometry">
            <mxRectangle width="290" height="30" as="alternateBounds" />
          </mxGeometry>
        </mxCell>
        <mxCell id="FKf2mYU8j4RiyfHHC0_l-100" value="" style="shape=tableRow;horizontal=0;startSize=0;swimlaneHead=0;swimlaneBody=0;fillColor=none;collapsible=0;dropTarget=0;points=[[0,0.5],[1,0.5]];portConstraint=eastwest;top=0;left=0;right=0;bottom=0;labelBackgroundColor=none;rounded=0;strokeColor=#909090;fontColor=#1A1A1A;" vertex="1" parent="FKf2mYU8j4RiyfHHC0_l-90">
          <mxGeometry y="125" width="320" height="30" as="geometry" />
        </mxCell>
        <mxCell id="FKf2mYU8j4RiyfHHC0_l-101" value="" style="shape=partialRectangle;connectable=0;fillColor=none;top=0;left=0;bottom=0;right=0;editable=1;overflow=hidden;whiteSpace=wrap;html=1;labelBackgroundColor=none;rounded=0;strokeColor=#909090;fontColor=#1A1A1A;" vertex="1" parent="FKf2mYU8j4RiyfHHC0_l-100">
          <mxGeometry width="30" height="30" as="geometry">
            <mxRectangle width="30" height="30" as="alternateBounds" />
          </mxGeometry>
        </mxCell>
        <mxCell id="FKf2mYU8j4RiyfHHC0_l-102" value="weather_condition" style="shape=partialRectangle;connectable=0;fillColor=none;top=0;left=0;bottom=0;right=0;align=left;spacingLeft=6;overflow=hidden;whiteSpace=wrap;html=1;labelBackgroundColor=none;rounded=0;strokeColor=#909090;fontColor=#1A1A1A;" vertex="1" parent="FKf2mYU8j4RiyfHHC0_l-100">
          <mxGeometry x="30" width="290" height="30" as="geometry">
            <mxRectangle width="290" height="30" as="alternateBounds" />
          </mxGeometry>
        </mxCell>
        <mxCell id="FKf2mYU8j4RiyfHHC0_l-106" style="shape=tableRow;horizontal=0;startSize=0;swimlaneHead=0;swimlaneBody=0;fillColor=none;collapsible=0;dropTarget=0;points=[[0,0.5],[1,0.5]];portConstraint=eastwest;top=0;left=0;right=0;bottom=0;labelBackgroundColor=none;rounded=0;strokeColor=#909090;fontColor=#1A1A1A;" vertex="1" parent="FKf2mYU8j4RiyfHHC0_l-90">
          <mxGeometry y="155" width="320" height="30" as="geometry" />
        </mxCell>
        <mxCell id="FKf2mYU8j4RiyfHHC0_l-107" style="shape=partialRectangle;connectable=0;fillColor=none;top=0;left=0;bottom=0;right=0;editable=1;overflow=hidden;whiteSpace=wrap;html=1;labelBackgroundColor=none;rounded=0;strokeColor=#909090;fontColor=#1A1A1A;" vertex="1" parent="FKf2mYU8j4RiyfHHC0_l-106">
          <mxGeometry width="30" height="30" as="geometry">
            <mxRectangle width="30" height="30" as="alternateBounds" />
          </mxGeometry>
        </mxCell>
        <mxCell id="FKf2mYU8j4RiyfHHC0_l-108" value="temperature" style="shape=partialRectangle;connectable=0;fillColor=none;top=0;left=0;bottom=0;right=0;align=left;spacingLeft=6;overflow=hidden;whiteSpace=wrap;html=1;labelBackgroundColor=none;rounded=0;strokeColor=#909090;fontColor=#1A1A1A;" vertex="1" parent="FKf2mYU8j4RiyfHHC0_l-106">
          <mxGeometry x="30" width="290" height="30" as="geometry">
            <mxRectangle width="290" height="30" as="alternateBounds" />
          </mxGeometry>
        </mxCell>
        <mxCell id="FKf2mYU8j4RiyfHHC0_l-109" style="shape=tableRow;horizontal=0;startSize=0;swimlaneHead=0;swimlaneBody=0;fillColor=none;collapsible=0;dropTarget=0;points=[[0,0.5],[1,0.5]];portConstraint=eastwest;top=0;left=0;right=0;bottom=0;labelBackgroundColor=none;rounded=0;strokeColor=#909090;fontColor=#1A1A1A;" vertex="1" parent="FKf2mYU8j4RiyfHHC0_l-90">
          <mxGeometry y="185" width="320" height="30" as="geometry" />
        </mxCell>
        <mxCell id="FKf2mYU8j4RiyfHHC0_l-110" style="shape=partialRectangle;connectable=0;fillColor=none;top=0;left=0;bottom=0;right=0;editable=1;overflow=hidden;whiteSpace=wrap;html=1;labelBackgroundColor=none;rounded=0;strokeColor=#909090;fontColor=#1A1A1A;" vertex="1" parent="FKf2mYU8j4RiyfHHC0_l-109">
          <mxGeometry width="30" height="30" as="geometry">
            <mxRectangle width="30" height="30" as="alternateBounds" />
          </mxGeometry>
        </mxCell>
        <mxCell id="FKf2mYU8j4RiyfHHC0_l-111" value="recommendation" style="shape=partialRectangle;connectable=0;fillColor=none;top=0;left=0;bottom=0;right=0;align=left;spacingLeft=6;overflow=hidden;whiteSpace=wrap;html=1;labelBackgroundColor=none;rounded=0;strokeColor=#909090;fontColor=#1A1A1A;" vertex="1" parent="FKf2mYU8j4RiyfHHC0_l-109">
          <mxGeometry x="30" width="290" height="30" as="geometry">
            <mxRectangle width="290" height="30" as="alternateBounds" />
          </mxGeometry>
        </mxCell>
        <mxCell id="FKf2mYU8j4RiyfHHC0_l-112" value="Location" style="shape=table;startSize=35;container=1;collapsible=1;childLayout=tableLayout;fixedRows=1;rowLines=0;fontStyle=1;align=center;resizeLast=1;html=1;labelBackgroundColor=none;rounded=0;fillColor=#F5AB50;strokeColor=#909090;fontColor=#1A1A1A;" vertex="1" parent="1">
          <mxGeometry x="40" y="-110" width="320" height="125" as="geometry" />
        </mxCell>
        <mxCell id="FKf2mYU8j4RiyfHHC0_l-113" value="" style="shape=tableRow;horizontal=0;startSize=0;swimlaneHead=0;swimlaneBody=0;fillColor=none;collapsible=0;dropTarget=0;points=[[0,0.5],[1,0.5]];portConstraint=eastwest;top=0;left=0;right=0;bottom=1;labelBackgroundColor=none;rounded=0;strokeColor=#909090;fontColor=#1A1A1A;" vertex="1" parent="FKf2mYU8j4RiyfHHC0_l-112">
          <mxGeometry y="35" width="320" height="30" as="geometry" />
        </mxCell>
        <mxCell id="FKf2mYU8j4RiyfHHC0_l-114" value="PK" style="shape=partialRectangle;connectable=0;fillColor=none;top=0;left=0;bottom=0;right=0;fontStyle=1;overflow=hidden;whiteSpace=wrap;html=1;labelBackgroundColor=none;rounded=0;strokeColor=#909090;fontColor=#1A1A1A;" vertex="1" parent="FKf2mYU8j4RiyfHHC0_l-113">
          <mxGeometry width="30" height="30" as="geometry">
            <mxRectangle width="30" height="30" as="alternateBounds" />
          </mxGeometry>
        </mxCell>
        <mxCell id="FKf2mYU8j4RiyfHHC0_l-115" value="location_id(PK)" style="shape=partialRectangle;connectable=0;fillColor=none;top=0;left=0;bottom=0;right=0;align=left;spacingLeft=6;fontStyle=5;overflow=hidden;whiteSpace=wrap;html=1;labelBackgroundColor=none;rounded=0;strokeColor=#909090;fontColor=#1A1A1A;" vertex="1" parent="FKf2mYU8j4RiyfHHC0_l-113">
          <mxGeometry x="30" width="290" height="30" as="geometry">
            <mxRectangle width="290" height="30" as="alternateBounds" />
          </mxGeometry>
        </mxCell>
        <mxCell id="FKf2mYU8j4RiyfHHC0_l-116" value="" style="shape=tableRow;horizontal=0;startSize=0;swimlaneHead=0;swimlaneBody=0;fillColor=none;collapsible=0;dropTarget=0;points=[[0,0.5],[1,0.5]];portConstraint=eastwest;top=0;left=0;right=0;bottom=0;labelBackgroundColor=none;rounded=0;strokeColor=#909090;fontColor=#1A1A1A;" vertex="1" parent="FKf2mYU8j4RiyfHHC0_l-112">
          <mxGeometry y="65" width="320" height="30" as="geometry" />
        </mxCell>
        <mxCell id="FKf2mYU8j4RiyfHHC0_l-117" value="" style="shape=partialRectangle;connectable=0;fillColor=none;top=0;left=0;bottom=0;right=0;editable=1;overflow=hidden;whiteSpace=wrap;html=1;labelBackgroundColor=none;rounded=0;strokeColor=#909090;fontColor=#1A1A1A;" vertex="1" parent="FKf2mYU8j4RiyfHHC0_l-116">
          <mxGeometry width="30" height="30" as="geometry">
            <mxRectangle width="30" height="30" as="alternateBounds" />
          </mxGeometry>
        </mxCell>
        <mxCell id="FKf2mYU8j4RiyfHHC0_l-118" value="district" style="shape=partialRectangle;connectable=0;fillColor=none;top=0;left=0;bottom=0;right=0;align=left;spacingLeft=6;overflow=hidden;whiteSpace=wrap;html=1;labelBackgroundColor=none;rounded=0;strokeColor=#909090;fontColor=#1A1A1A;" vertex="1" parent="FKf2mYU8j4RiyfHHC0_l-116">
          <mxGeometry x="30" width="290" height="30" as="geometry">
            <mxRectangle width="290" height="30" as="alternateBounds" />
          </mxGeometry>
        </mxCell>
        <mxCell id="FKf2mYU8j4RiyfHHC0_l-119" value="" style="shape=tableRow;horizontal=0;startSize=0;swimlaneHead=0;swimlaneBody=0;fillColor=none;collapsible=0;dropTarget=0;points=[[0,0.5],[1,0.5]];portConstraint=eastwest;top=0;left=0;right=0;bottom=0;labelBackgroundColor=none;rounded=0;strokeColor=#909090;fontColor=#1A1A1A;" vertex="1" parent="FKf2mYU8j4RiyfHHC0_l-112">
          <mxGeometry y="95" width="320" height="30" as="geometry" />
        </mxCell>
        <mxCell id="FKf2mYU8j4RiyfHHC0_l-120" value="" style="shape=partialRectangle;connectable=0;fillColor=none;top=0;left=0;bottom=0;right=0;editable=1;overflow=hidden;whiteSpace=wrap;html=1;labelBackgroundColor=none;rounded=0;strokeColor=#909090;fontColor=#1A1A1A;" vertex="1" parent="FKf2mYU8j4RiyfHHC0_l-119">
          <mxGeometry width="30" height="30" as="geometry">
            <mxRectangle width="30" height="30" as="alternateBounds" />
          </mxGeometry>
        </mxCell>
        <mxCell id="FKf2mYU8j4RiyfHHC0_l-121" value="village" style="shape=partialRectangle;connectable=0;fillColor=none;top=0;left=0;bottom=0;right=0;align=left;spacingLeft=6;overflow=hidden;whiteSpace=wrap;html=1;labelBackgroundColor=none;rounded=0;strokeColor=#909090;fontColor=#1A1A1A;" vertex="1" parent="FKf2mYU8j4RiyfHHC0_l-119">
          <mxGeometry x="30" width="290" height="30" as="geometry">
            <mxRectangle width="290" height="30" as="alternateBounds" />
          </mxGeometry>
        </mxCell>
        <mxCell id="FKf2mYU8j4RiyfHHC0_l-131" value="" style="edgeStyle=entityRelationEdgeStyle;fontSize=12;html=1;endArrow=ERmany;rounded=0;" edge="1" parent="1" source="FKf2mYU8j4RiyfHHC0_l-112" target="FKf2mYU8j4RiyfHHC0_l-1">
          <mxGeometry width="100" height="100" relative="1" as="geometry">
            <mxPoint x="310" y="-105" as="sourcePoint" />
            <mxPoint x="410" y="-205" as="targetPoint" />
          </mxGeometry>
        </mxCell>
        <mxCell id="FKf2mYU8j4RiyfHHC0_l-132" value="" style="edgeStyle=entityRelationEdgeStyle;fontSize=12;html=1;endArrow=ERmandOne;startArrow=ERmandOne;rounded=0;" edge="1" parent="1" source="FKf2mYU8j4RiyfHHC0_l-90" target="FKf2mYU8j4RiyfHHC0_l-112">
          <mxGeometry width="100" height="100" relative="1" as="geometry">
            <mxPoint x="20" y="170" as="sourcePoint" />
            <mxPoint x="120" y="70" as="targetPoint" />
          </mxGeometry>
        </mxCell>
      </root>
    </mxGraphModel>
  </diagram>
</mxfile>
